<?xml version="1.0" encoding="utf-8"?>
<!-- Generator: Adobe Illustrator 24.1.3, SVG Export Plug-In . SVG Version: 6.00 Build 0)  -->
<svg version="1.1" id="Layer_1" xmlns="http://www.w3.org/2000/svg" xmlns:xlink="http://www.w3.org/1999/xlink" x="0px" y="0px"
	viewBox="0 0 54 54" style="enable-background:new 0 0 250 54;" xml:space="preserve">
<style type="text/css">
	.st0{fill-rule:evenodd;clip-rule:evenodd;fill:#222222;}
	.st1{fill:#222222;}
	.st2{fill:#9E9D98;}
	.st3{fill:#FFFFFF;}
</style>
<desc>Created with Lunacy</desc>
<rect width="100%" height="100%" fill="#ffffff"/>
<g id="Group">
	<g id="Group-5">
		<path id="Shape_3_" class="st0" d="M53.5,21.9c0.2,1.1,0.4,2.2,0.4,3.3c0,0.7,0.1,1.3,0.1,1.9c0,5.9-2,11.7-5.7,16.4
			c-3.4,4.4-8.1,7.6-13.3,9.3c-1.3,0.4-2.7,0.7-4.1,0.9C29.6,53.9,28.3,54,27,54c-0.3,0-0.5,0-0.8,0C17.1,53.7,8.8,48.9,4,41.1
			c-1.3-2.2-2.4-4.6-3-7c-0.4-1.4-0.6-2.8-0.8-4.3C0,28.9,0,27.9,0,27c0-5.9,1.9-11.7,5.5-16.3c3.8-5,9.2-8.5,15.2-9.9
			c1.2-0.3,2.4-0.5,3.7-0.6C25.5,0,26.5,0,27.6,0c2.7,0.1,5.4,0.5,8,1.4c3.7,1.2,7.1,3.3,10,6c2.3,2.1,4.1,4.6,5.6,7.4
			C52.2,17,53,19.4,53.5,21.9z M49.5,36.2c0.8-1.9,1.3-3.9,1.6-6h0c0.2-1.5,0.3-2.9,0.2-4.4c-0.2-3.6-1.2-7.2-2.9-10.4
			C45,9.1,38.9,4.7,32,3.2c-1.5-0.3-3.1-0.5-4.7-0.5h-0.2c-0.7,0-1.2,0-1.7,0c-1.3,0.1-2.7,0.3-4,0.6C15,4.8,9.5,8.9,6.1,14.6
			c-1.4,2.3-2.4,4.9-2.9,7.5c-0.4,1.8-0.5,3.6-0.5,5.4c0,1.4,0.2,2.8,0.5,4.2c0.5,2.6,1.5,5.2,2.8,7.5c1.4,2.5,3.3,4.7,5.5,6.5
			c3.9,3.3,8.7,5.2,13.8,5.6c1.6,0.1,3.2,0.1,4.8-0.1c6.6-0.8,12.6-4.3,16.6-9.6C47.8,39.9,48.8,38.1,49.5,36.2z"/>
		<path id="Path_5_" class="st1" d="M44,36.2c-0.1-0.1-0.1-0.2-0.2-0.3L30.2,12.7c-0.5-0.9-1.1-1.8-1.6-2.8c-0.3-0.6-1-1-1.6-1
			c-0.7,0-1.3,0.4-1.6,1c-0.2,0.4-0.4,0.7-0.6,1.1c-0.1,0.2-0.3,0.5-0.4,0.7l-3.3,5.7l-9.2,15.9c-0.6,1-1.2,2-1.8,3
			c-0.4,0.6-0.4,1.3,0,1.9c0.3,0.7,1,1.1,1.7,1h24.3c2.1,0,4.3,0,6.5,0l0,0c0.7,0,1.4-0.4,1.7-1C44.4,37.5,44.4,36.8,44,36.2z"/>
		<path id="Path_6_" class="st2" d="M12.9,36.5l1-1.8l0.8-1.4l1.5-2.6l2.2-3.8l2.3-3.9l0.1-0.2c0-0.1,0.1-0.1,0.1-0.2l0.3,0.2
			c0.4,0.2,0.7,0.4,1.1,0.6c0.2,0.1,0.4,0.2,0.6,0.2c0.2,0,0.5-0.1,0.7-0.2c0.2-0.1,0.5-0.3,0.7-0.4c0.2-0.1,0.4-0.2,0.6-0.3l0,0
			l0,0c0.3,0.2,0.6,0.3,1,0.5l0.4,0.2c0.2,0.1,0.4,0.1,0.6,0.2c0.2,0,0.4-0.1,0.6-0.2c0.2-0.1,0.5-0.3,0.7-0.4l0.5-0.3c0,0,0,0,0,0
			h0c0.2,0.1,0.5,0.3,0.7,0.4c0.2,0.1,0.4,0.2,0.5,0.3c0.2,0.1,0.4,0.2,0.6,0.2c0.2,0,0.5-0.1,0.7-0.2c0.4-0.2,0.8-0.4,1.2-0.7
			l0.3-0.2l2.7,4.6l1.9,3.3l2.2,3.8l1.3,2.2L12.9,36.5L12.9,36.5z"/>
		<path id="Path_7_" class="st3" d="M30.7,21.1L30.7,21.1l-0.6-0.3c-0.2-0.1-0.5-0.2-0.7-0.4c-0.2-0.1-0.4-0.2-0.7-0.2
			c-0.2,0-0.5,0.1-0.7,0.2c-0.2,0.1-0.4,0.2-0.6,0.3c-0.2,0.1-0.4,0.2-0.6,0.3c0,0,0,0-0.1,0c0,0,0,0-0.1,0
			c-0.2-0.1-0.5-0.3-0.7-0.4c-0.2-0.1-0.4-0.2-0.5-0.3c-0.2-0.1-0.4-0.2-0.6-0.2c-0.2,0-0.4,0.1-0.6,0.2l-0.6,0.3
			c-0.2,0.1-0.4,0.2-0.6,0.3l0,0h0c-0.2-0.1-0.4-0.2-0.6-0.3l-0.2-0.1l4.8-8.2l4.8,8.1l-0.4,0.2C31.1,20.8,30.9,20.9,30.7,21.1
			L30.7,21.1z"/>
	</g>
</g>
</svg>
