<svg preserveAspectRatio="xMidYMid meet" viewBox="2862 500 1425 1430" xmlns="http://www.w3.org/2000/svg" shape-rendering="geometricPrecision" text-rendering="geometricPrecision" image-rendering="optimizeQuality" fill-rule="evenodd" clip-rule="evenodd" data-type="color" role="presentation" aria-hidden="true" aria-label="">
    <g>
        <path d="M4257.89 1387.09c-76.4 307.25-354.06 534.96-684.95 534.96-330.57 0-608.03-227.26-684.73-534.06 2.95 6.8 6.24 12.86 9.92 18.03 36.4 3.7 42.97-14.09 58.65-36.39 12.49-17.78 22.33-31.03 37-52l296.6-415.5c72.93-99.69 96.82-91.95 167.47 0 39.1 50.88 81.04 114.29 96.41 135.59 211.32 292.74 196.74 335.69 338.74 129.86 80.9-117.25 119.22-48.02 187.55 49.74l111.03 156c14.81 20.92 21.12 36.24 56 32.69 3.84-5.41 7.26-11.78 10.31-18.93z" fill="#032c50" data-color="3"></path>
        <path d="M2898.12 1406.02c36.4 3.7 42.97-14.09 58.65-36.39 12.49-17.78 22.34-31.03 37-52l296.6-415.5c72.93-99.69 96.82-91.95 167.47 0 39.1 50.88 81.04 114.29 96.41 135.59 211.32 292.74 196.74 335.69 338.73 129.86 80.91-117.25 119.22-48.02 187.56 49.74l111.03 156c14.81 20.92 21.12 36.23 56 32.69 46.88-66.01 32.21-272.69 11.02-360.56-27.76-115.05-77.41-195.05-135.26-271.17-258.4-340.04-818.89-363.69-1103.75 3.56-58.21 75.04-107.1 160.26-133.7 272.67-20.42 86.27-33.99 290.49 12.25 355.5z" fill="#ffc533" data-color="2"></path>
    </g>
</svg>
